# xmcd
#
# Track frame offsets:
#	150
#	25636
#	47800
#	72209
#	100865
#	121658
#	142436
#	163035
#	188185
#	204307
#
# Disc length: 2995 seconds
#
# Revision: 1
# Processed by: cddbd v1.5.2PL0 Copyright (c) Steve Scherf et al.
# Submitted via: EZCDAudioConverter 8.0.2.1
#
DISCID=890bb10a
DTITLE=Thanh Tuyền, Hương Lan - Gợi Nhớ Tình Xưa
DYEAR=1998
DGENRE=Contemporary Pop
TTITLE0=Thanh Tuyền - Tiếng hát em còn đâu
TTITLE1=Hương Lan - Gợi Nhớ Tình Xưa
TTITLE2=Thanh Tuyền, Nguyễn Sơn - Tơ hồng
TTITLE3=Hương Lan - Lối thu xưa
TTITLE4=Hương Lan - Gặp nhau
TTITLE5=Hương Lan - Con sáo sậu
TTITLE6=Thanh Tuyền - Chiều về trên sông
TTITLE7=Hương Lan - Hương tóc mạ non
TTITLE8=Thanh Tuyền - Chiếc áo quê hương
TTITLE9=Hương Lan - Bướm trắng
EXTD=
EXTT0=
EXTT1=
EXTT2=
EXTT3=
EXTT4=
EXTT5=
EXTT6=
EXTT7=
EXTT8=
EXTT9=
PLAYORDER=
